<?xml version="1.0" encoding="utf-8"?>
<!-- Generator: Adobe Illustrator 27.0.0, SVG Export Plug-In . SVG Version: 6.00 Build 0)  -->
<svg version="1.1" id="Layer_1" xmlns="http://www.w3.org/2000/svg" xmlns:xlink="http://www.w3.org/1999/xlink" x="0px" y="0px"
	 viewBox="0 0 836.6 265.9" style="enable-background:new 0 0 836.6 265.9;" xml:space="preserve">
<style type="text/css">
	.st0{fill:#FFFFFF;}
</style>
<g>
	<path class="st0" d="M124.7,0c-41.3,0-79.8,20.5-103,54.1c17.8-13,39.8-19.2,62.4-17c46.7,4.6,81.5,45,81.5,91.7v70.5H84.4v-75.1
		c0-22.1,18.1-40.1,40.3-40.1c4.7,0,9.4,0.8,13.9,2.5c-15.3-23.9-43-37.5-72.1-34.1C28.2,56.7,0,90.2,0,128.6v137.3h249.4V124.2
		C249.4,55.7,193.5,0,124.7,0z"/>
	<path class="st0" d="M124.7,99.4c14.2,0,25.7,11.5,25.7,25.6v59.1H99v-59.1C99,110.9,110.5,99.4,124.7,99.4L124.7,99.4z"/>
	<path class="st0" d="M349.4,103.5v-8.6h-48.3v95.1h9.6v-43.4H348v-8.6h-37.3v-34.4H349.4L349.4,103.5z"/>
	<path class="st0" d="M364.5,94.8v95.1h9.6V94.8H364.5z"/>
	<path class="st0" d="M460.1,94.8v78.9h-0.2l-53.3-78.9h-12.9v95.1h9.6v-83.7h0.3l56.6,83.7h9.6V94.8H460.1L460.1,94.8z"/>
	<path class="st0" d="M532.5,94.8h-10.7L481,189.9h10l14-32h44.4l13.8,32h10.5L532.5,94.8z M508.5,149.3l18.7-43.7l18.4,43.7H508.5z
		"/>
	<path class="st0" d="M648.8,125.5c0-16-11.1-30.7-36-30.7H584v95.1h9.6v-86.5h18.2c22,0,27.5,12.8,27.5,21.8c0,13-10,21.6-27,21.6
		H603l32.4,43.1h12l-27-35.5C637.2,153.2,648.8,140.9,648.8,125.5L648.8,125.5z"/>
	<path class="st0" d="M742.1,165c-8.7,11.4-20.4,18-33.4,18c-21.4,0-40.3-19-40.3-40.4c0-21.3,18.8-40.7,40.1-40.7
		c12.9,0,25.8,6.4,33.2,17.3h10.7c-7.6-15.8-26.1-26-43.7-26c-27.5,0-49.8,21.4-49.8,49.3s22.7,49,49.9,49c18,0,34.7-10,44-26.5
		L742.1,165L742.1,165z"/>
	<path class="st0" d="M827.1,94.8v41.9h-49.5V94.8h-9.6v95.1h9.6v-44.6h49.5v44.6h9.6V94.8H827.1z"/>
	<path class="st0" d="M310.4,249.5v-35.2h-8.9v-3.5h21.7v3.5h-8.9v35.2H310.4L310.4,249.5z"/>
	<path class="st0" d="M348.4,249.5v-15.9c0-6.4-3.9-10.1-8.9-10.1c-5.6,0-9,4.2-9,9.8v16.2h-3.7v-38.6h3.7v13.7h0.1
		c1.8-2.8,5.1-4.4,8.8-4.4c7.9,0,12.7,5.4,12.7,13.4v15.9H348.4z"/>
	<path class="st0" d="M361.3,236.6c0.3,5.7,5.6,10.3,11.1,10.3c4.5,0,8.7-2.6,10.3-6.7h3.9c-2.2,6.2-8,10-14.1,10
		c-8.1,0-15-6.6-15-14.9s6.9-15,14.9-15c8.6,0,15.1,7.4,15.1,15.2c0,0.4-0.1,0.7-0.1,1.1H361.3z M383.7,233.3
		c-1.1-5.7-5.6-9.8-11.3-9.8c-5.3,0-10.1,3.9-11.1,9.8H383.7L383.7,233.3z"/>
	<path class="st0" d="M407.9,249.5v-38.6h19.6v3.5h-15.7v14h15.2v3.5h-15.2v17.7L407.9,249.5L407.9,249.5z"/>
	<path class="st0" d="M433.1,217.4v-6.6h3.7v6.6H433.1z M433.1,249.5v-28.6h3.7v28.6H433.1z"/>
	<path class="st0" d="M465.1,249.5v-15.9c0-6.4-3.9-10.1-8.9-10.1c-5.6,0-9,4.2-9,9.8v16.2h-3.7V221h3.7v3.6h0.1
		c1.8-2.8,5.1-4.4,8.8-4.4c7.9,0,12.7,5.4,12.7,13.4v15.9L465.1,249.5L465.1,249.5z"/>
	<path class="st0" d="M477.9,236.6c0.3,5.7,5.6,10.3,11.1,10.3c4.5,0,8.7-2.6,10.3-6.7h3.9c-2.2,6.2-8,10-14.1,10
		c-8.1,0-15-6.6-15-14.9s6.9-15,14.9-15c8.6,0,15.1,7.4,15.1,15.2c0,0.4-0.1,0.7-0.1,1.1H477.9z M500.3,233.3
		c-1.1-5.7-5.6-9.8-11.3-9.8c-5.3,0-10.1,3.9-11.1,9.8H500.3L500.3,233.3z"/>
	<path class="st0" d="M554.8,249.5l-5.6-13h-18.1l-5.7,13h-4l16.6-38.6h4.4l16.7,38.6H554.8L554.8,249.5z M540.2,215.3l-7.6,17.8
		h15.1L540.2,215.3z"/>
	<path class="st0" d="M563,249.5V221h3.7v4.1h0.1c1.3-3,3.5-4.6,8.1-4.9v3.9h0c-5.3,0.5-8.1,4-8.1,8.6v16.9L563,249.5L563,249.5z"/>
	<path class="st0" d="M606.9,241.1c-2.9,5.8-7.6,9.1-14.3,9.1c-8.6,0-15.4-6.3-15.4-15.2c0-7.8,6.9-14.7,15.4-14.7
		c6.3,0,11.9,3.5,14.3,9.3h-4c-2.1-4-6-6.1-10.1-6.1c-6.6,0-11.9,5.2-11.9,11.6c0,6.5,5.2,11.8,11.9,11.8c4.4,0,8.1-2,10.1-5.8
		H606.9z"/>
	<path class="st0" d="M633.8,249.5v-15.9c0-6.4-3.9-10.1-8.9-10.1c-5.6,0-9,4.2-9,9.8v16.2h-3.7v-38.6h3.7v13.7h0.1
		c1.8-2.8,5.1-4.4,8.8-4.4c7.9,0,12.7,5.4,12.7,13.4v15.9H633.8z"/>
	<path class="st0" d="M644.4,217.4v-6.6h3.7v6.6H644.4z M644.4,249.5v-28.6h3.7v28.6H644.4z"/>
	<path class="st0" d="M658.3,249.5v-25.3h-6V221h6v-10.1h3.7V221h6.9v3.3H662v25.3H658.3z"/>
	<path class="st0" d="M675.1,236.6c0.3,5.7,5.6,10.3,11.1,10.3c4.5,0,8.7-2.6,10.3-6.7h3.9c-2.2,6.2-8,10-14.1,10
		c-8.1,0-15-6.6-15-14.9s6.9-15,14.9-15c8.6,0,15.1,7.4,15.1,15.2c0,0.4-0.1,0.7-0.1,1.1H675.1z M697.5,233.3
		c-1.1-5.7-5.6-9.8-11.3-9.8c-5.3,0-10.1,3.9-11.1,9.8H697.5L697.5,233.3z"/>
	<path class="st0" d="M735.3,241.1c-2.9,5.8-7.6,9.1-14.3,9.1c-8.6,0-15.4-6.3-15.4-15.2c0-7.8,6.9-14.7,15.4-14.7
		c6.3,0,11.9,3.5,14.3,9.3h-4c-2.1-4-6-6.1-10.1-6.1c-6.6,0-11.9,5.2-11.9,11.6c0,6.5,5.2,11.8,11.9,11.8c4.4,0,8.1-2,10.1-5.8
		H735.3z"/>
	<path class="st0" d="M744.2,249.5v-25.3h-6V221h6v-10.1h3.7V221h6.9v3.3h-6.9v25.3H744.2z"/>
	<path class="st0" d="M780.1,249.5v-4.4H780c-1.6,3.3-5,5.1-9.1,5.1c-6.1,0-12.4-3.2-12.4-12.9V221h3.7v15.9c0,6.5,2.8,10,8.8,10
		c4.9,0,9-3.4,9-10.3V221h3.7v28.6L780.1,249.5L780.1,249.5z"/>
	<path class="st0" d="M790.5,249.5V221h3.7v4.1h0.1c1.3-3,3.5-4.6,8.1-4.9v3.9h0c-5.3,0.5-8.1,4-8.1,8.6v16.9L790.5,249.5
		L790.5,249.5z"/>
	<path class="st0" d="M808.3,236.6c0.3,5.7,5.6,10.3,11.1,10.3c4.5,0,8.7-2.6,10.3-6.7h3.9c-2.2,6.2-8,10-14.1,10
		c-8.1,0-15-6.6-15-14.9s6.9-15,14.9-15c8.6,0,15.1,7.4,15.1,15.2c0,0.4-0.1,0.7-0.1,1.1H808.3z M830.7,233.3
		c-1.1-5.7-5.6-9.8-11.3-9.8c-5.3,0-10.1,3.9-11.1,9.8H830.7L830.7,233.3z"/>
</g>
</svg>
